<svg enable-background="new 0 0 512 512" viewBox="0 0 512 512" xmlns="http://www.w3.org/2000/svg"><path d="m72.758 503.925c0-18.474 13.756-34.056 32.087-36.348l22.058-2.757c18.331-2.292 32.087-17.874 32.087-36.348v-97.011h271.09v172.463z" fill="#a88d68"/><path d="m202.105 503.925v-204.8h86.232v204.8z" fill="#93795a"/><path d="m503.916 266.788c0 53.578-43.433 97.011-97.011 97.011h-10.779c-26.171 0-49.918-10.367-67.368-27.215-17.45 16.848-41.197 27.215-67.368 27.215h-10.779-145.516c-53.578 0-97.011-43.433-97.011-97.011 0-53.578 43.433-97.011 97.011-97.011h.457c-15.363-17.163-24.71-39.826-24.71-64.674 0-53.578 43.433-97.011 97.011-97.011 22.944 0 44.022 7.97 60.632 21.285 16.609-13.315 37.687-21.285 60.632-21.285h35.032c53.578 0 97.01 43.433 97.01 97.011 0 24.848-9.346 47.51-24.71 64.674h.457c53.577 0 97.01 43.433 97.01 97.011z" fill="#8ec155"/><path d="m503.916 266.788c0 38.088-21.953 71.044-53.895 86.917v-25.941c13.481-16.658 21.558-37.866 21.558-60.967 0-.847-.011-1.691-.032-2.533-1.044-40.744-35.038-72.938-75.796-72.938h-42.74c-6.19 0-11.162-5.218-10.755-11.496.371-5.729 5.384-10.062 11.125-10.062 15.078 0 28.952-8.482 35.589-22.019 6.309-12.868 9.852-27.338 9.852-42.636 0-50.854-39.132-92.564-88.926-96.673v-.347h22.994c53.954 0 98.856 44.147 98.263 98.098-.268 24.422-9.565 46.674-24.704 63.586h.457c53.577 0 97.01 43.433 97.01 97.011z" fill="#84ab4f"/><path d="m482.358 374.569-21.558 129.347h-204.8l-21.558-129.347v-21.558h247.916z" fill="#b79c79"/><path d="m450.021 374.577-21.558 129.347h-172.463l-21.558-129.347z" fill="#d1bb93"/><path d="m396.126 374.569-61.192 72.318c-2.208 2.609-5.453 4.114-8.871 4.114s-6.662-1.505-8.871-4.114l-61.192-72.318v-10.779h140.126z" fill="#f95948"/><path d="m396.126 374.577-61.192 72.318c-2.208 2.608-5.453 4.114-8.871 4.114s-6.662-1.505-8.871-4.114l-7.297-8.624 53.895-63.694zm0-10.787h-32.336v10.779h32.337v-10.779z" fill="#d83c39"/><path d="m503.916 342.241v21.558c0 5.953-4.826 10.779-10.779 10.779h-269.474c-5.953 0-10.779-4.826-10.779-10.779v-21.558c0-5.953 4.826-10.779 10.779-10.779h269.474c5.953 0 10.779 4.825 10.779 10.779z" fill="#b79c79"/><path d="m503.916 342.241v21.558c0 5.953-4.826 10.779-10.779 10.779h-21.558-10.779-10.779v-10.779-21.558-10.779h10.779 10.779 21.558c5.953 0 10.779 4.825 10.779 10.779z" fill="#a88d68"/><path d="m259.157 16.304c-1.489-4.209.717-8.828 4.926-10.317 11.231-3.972 23.019-5.987 35.033-5.987h35.032c57.95 0 105.095 47.145 105.095 105.095 0 20.641-6.041 40.639-17.233 57.672 50.816 7.346 89.99 51.191 89.99 104.012 0 12.013-2.012 23.799-5.982 35.03-1.173 3.319-4.291 5.393-7.622 5.393-.894 0-1.803-.15-2.694-.465-4.209-1.488-6.416-6.106-4.928-10.315 3.355-9.497 5.057-19.47 5.057-29.643 0-49.033-39.893-88.926-88.926-88.926h-.457c-3.188 0-6.079-1.874-7.38-4.785-1.302-2.91-.771-6.314 1.357-8.69 14.605-16.317 22.649-37.371 22.649-59.282 0-49.033-39.893-88.926-88.926-88.926h-35.032c-10.173 0-20.146 1.702-29.641 5.061-4.209 1.485-8.829-.717-10.318-4.927zm-154.062 355.569h75.453c4.465 0 8.084-3.618 8.084-8.084s-3.62-8.084-8.084-8.084h-75.453c-49.035 0-88.926-39.893-88.926-88.926s39.892-88.925 88.926-88.925c19.867 0 38.657 6.409 54.339 18.535 2.912 2.251 6.978 2.251 9.891 0 15.682-12.126 34.472-18.535 54.339-18.535h32.336c17.687 0 34.77 5.178 49.402 14.973 3.709 2.482 8.731 1.49 11.214-2.222 2.485-3.709 1.49-8.731-2.222-11.214-17.301-11.583-37.493-17.705-58.395-17.705h-32.337c-21.426 0-41.795 6.31-59.284 18.308-16.332-11.205-35.177-17.449-55.05-18.226-13.181-15.919-20.402-35.91-20.402-56.671 0-48.944 39.746-88.78 88.657-88.926 48.911.147 88.657 39.982 88.657 88.926 0 4.466 3.618 8.084 8.084 8.084s8.084-3.618 8.084-8.084c0-32.051-14.419-60.795-37.116-80.089-.461-.72-1.047-1.379-1.752-1.945-18.619-14.927-42.025-23.127-65.957-23.063-.158 0-.32 0-.476.002-57.61.402-104.349 47.391-104.349 105.093 0 20.641 6.041 40.64 17.233 57.672-50.818 7.346-89.991 51.191-89.991 104.012 0 57.949 47.145 105.094 105.095 105.094zm406.905-29.642v21.558c0 10.401-8.463 18.863-18.863 18.863h-3.93l-18.863 113.179h33.572c4.466 0 8.084 3.618 8.084 8.084s-3.618 8.084-8.084 8.084h-42.965c-.046.001-.094.001-.141.001-.046 0-.094 0-.141-.001h-53.763c-4.466 0-8.084-3.618-8.084-8.084s3.618-8.084 8.084-8.084h47.046l18.863-113.179h-72.939l-58.77 69.455c-3.75 4.433-9.233 6.977-15.042 6.977s-11.292-2.543-15.043-6.978l-58.769-69.454h-8.265l18.863 113.179h111.719c4.466 0 8.084 3.618 8.084 8.084s-3.618 8.084-8.084 8.084h-118.437c-.094.001-.188.001-.281 0h-247.767c-4.465 0-8.084-3.618-8.084-8.084s3.62-8.084 8.084-8.084h57.326c3.468-18.844 18.835-33.835 38.432-36.285l22.057-2.758c14.256-1.781 25.006-13.958 25.006-28.325v-21.558c0-4.466 3.62-8.084 8.084-8.084 4.465 0 8.084 3.618 8.084 8.084v21.558c0 22.504-16.839 41.579-39.169 44.369l-22.057 2.758c-11.48 1.435-20.685 9.611-23.835 20.241h164.445l-18.863-113.179h-3.931c-10.401 0-18.863-8.463-18.863-18.863v-21.558c0-10.401 8.463-18.863 18.863-18.863h99.705v-70.063c0-22.289 18.132-40.421 40.421-40.421s40.421 18.133 40.421 40.422v70.063h88.926c10.402 0 18.864 8.461 18.864 18.862zm-133.304 40.421h-105.265l49.933 59.012c.674.797 1.657 1.253 2.699 1.253s2.025-.456 2.698-1.251zm9.346-43.116h-164.379c-1.485 0-2.695 1.208-2.695 2.695v21.558c0 1.486 1.209 2.695 2.695 2.695h10.647c.093-.003.188-.003.281 0h21.35.108 131.992v-26.948zm0-86.23c0-13.372-10.88-24.253-24.253-24.253s-24.253 10.88-24.253 24.253v70.063h48.505v-70.063zm107.79 88.925c0-1.486-1.208-2.695-2.695-2.695h-88.926v26.947h77.996c.092-.002.186-.002.282 0h10.647c1.486 0 2.695-1.208 2.695-2.695zm-301.811 118.568c0 4.466 3.62 8.084 8.084 8.084 4.465 0 8.084-3.618 8.084-8.084v-53.895c0-4.466-3.62-8.084-8.084-8.084-4.465 0-8.084 3.618-8.084 8.084z"/></svg>